<svg xmlns="http://www.w3.org/2000/svg" viewBox="0 0 64 64" role="img" aria-label="Suikakeibo Viewer">
	<defs>
		<linearGradient id="card" x1="12" y1="8" x2="52" y2="56" gradientUnits="userSpaceOnUse">
			<stop stop-color="#1d9a8f"/>
			<stop offset="1" stop-color="#0f766e"/>
		</linearGradient>
		<linearGradient id="shine" x1="18" y1="12" x2="40" y2="36" gradientUnits="userSpaceOnUse">
			<stop stop-color="#fff" stop-opacity=".28"/>
			<stop offset="1" stop-color="#fff" stop-opacity="0"/>
		</linearGradient>
	</defs>
	<rect width="64" height="64" rx="14" fill="#f3efe6"/>
	<g transform="translate(32 33) rotate(-18) translate(-32 -33)">
		<rect x="14" y="16" width="36" height="34" rx="5" fill="url(#card)"/>
		<rect x="14" y="16" width="36" height="34" rx="5" fill="url(#shine)"/>
		<rect x="19" y="22" width="8" height="6.5" rx="1.2" fill="#d8b45a"/>
		<path d="M21 23.2h4M21 25.2h4M21 27.2h4" stroke="#b8943d" stroke-width=".7" stroke-linecap="round"/>
		<path d="M30 28.5c6.5 0 11.5 3.2 14 7" fill="none" stroke="#ecfdf5" stroke-width="2" stroke-linecap="round" opacity=".9"/>
		<g transform="translate(33.5 36)">
			<rect x="0" y="0" width="12" height="8" rx="2" fill="#ecfdf5"/>
			<rect x="1.5" y="1.5" width="3.2" height="2.6" rx=".5" fill="#0f766e"/>
			<rect x="5.4" y="1.5" width="3.2" height="2.6" rx=".5" fill="#0f766e"/>
			<circle cx="3.2" cy="8.2" r="1.15" fill="#134e4a"/>
			<circle cx="9" cy="8.2" r="1.15" fill="#134e4a"/>
		</g>
	</g>
</svg>
